HIERARCHY
ROOT Character1_Hips
{
	OFFSET 0.000000 86.858185 1.182688
	CHANNELS 6 Xposition Yposition Zposition Xrotation Yrotation Zrotation
	JOINT Character1_LeftUpLeg
	{
		OFFSET 7.276832 -6.057800 0.207883
		CHANNELS 6 Xposition Yposition Zposition Xrotation Yrotation Zrotation
		JOINT Character1_LeftLeg
		{
			OFFSET -1.823140 -35.110466 -1.568847
			CHANNELS 6 Xposition Yposition Zposition Xrotation Yrotation Zrotation
			JOINT Character1_LeftFoot
			{
				OFFSET -1.031196 -37.817070 -1.726818
				CHANNELS 6 Xposition Yposition Zposition Xrotation Yrotation Zrotation
				JOINT Character1_LeftToeBase
				{
					OFFSET 0.202457 -5.287532 8.122427
					CHANNELS 6 Xposition Yposition Zposition Xrotation Yrotation Zrotation
					End Site
					{
						OFFSET 0.009223 0.000047 9.693953
					}
				}
			}
		}
	}
	JOINT Character1_RightUpLeg
	{
		OFFSET -7.276832 -6.057770 0.207879
		CHANNELS 6 Xposition Yposition Zposition Xrotation Yrotation Zrotation
		JOINT Character1_RightLeg
		{
			OFFSET 1.823196 -35.109627 -1.587624
			CHANNELS 6 Xposition Yposition Zposition Xrotation Yrotation Zrotation
			JOINT Character1_RightFoot
			{
				OFFSET 1.031267 -37.817833 -1.710079
				CHANNELS 6 Xposition Yposition Zposition Xrotation Yrotation Zrotation
				JOINT Character1_RightToeBase
				{
					OFFSET -0.202449 -5.287759 8.122276
					CHANNELS 6 Xposition Yposition Zposition Xrotation Yrotation Zrotation
					End Site
					{
						OFFSET 0.001154 -0.000006 9.693956
					}
				}
			}
		}
	}
	JOINT Character1_Spine
	{
		OFFSET -0.000001 2.271347 0.818150
		CHANNELS 6 Xposition Yposition Zposition Xrotation Yrotation Zrotation
		JOINT Character1_Spine1
		{
			OFFSET -0.000001 9.085945 0.955446
			CHANNELS 6 Xposition Yposition Zposition Xrotation Yrotation Zrotation
			JOINT Character1_Spine2
			{
				OFFSET -0.000002 8.765564 -0.142866
				CHANNELS 6 Xposition Yposition Zposition Xrotation Yrotation Zrotation
				JOINT Character1_LeftShoulder
				{
					OFFSET 4.211487 11.612236 -3.873799
					CHANNELS 6 Xposition Yposition Zposition Xrotation Yrotation Zrotation
					JOINT Character1_LeftArm
					{
						OFFSET 5.543700 0.000031 -0.000005
						CHANNELS 6 Xposition Yposition Zposition Xrotation Yrotation Zrotation
						JOINT Character1_LeftForeArm
						{
							OFFSET 23.377409 -0.123474 0.033367
							CHANNELS 6 Xposition Yposition Zposition Xrotation Yrotation Zrotation
							JOINT Character1_LeftHand
							{
								OFFSET 16.247719 -0.118858 0.035829
								CHANNELS 6 Xposition Yposition Zposition Xrotation Yrotation Zrotation
								JOINT Character1_LeftHandThumb1
								{
									OFFSET 2.510399 -0.904045 2.091601
									CHANNELS 6 Xposition Yposition Zposition Xrotation Yrotation Zrotation
									JOINT Character1_LeftHandThumb2
									{
										OFFSET 2.570465 -1.130470 1.584520
										CHANNELS 6 Xposition Yposition Zposition Xrotation Yrotation Zrotation
										JOINT Character1_LeftHandThumb3
										{
											OFFSET 1.420841 -0.605858 0.842600
											CHANNELS 6 Xposition Yposition Zposition Xrotation Yrotation Zrotation
											JOINT Character1_LeftHandThumb4
											{
												OFFSET 2.153469 -0.757797 1.312965
												CHANNELS 6 Xposition Yposition Zposition Xrotation Yrotation Zrotation
												End Site
												{
													OFFSET 2.158772 -0.733734 1.317914
												}
											}
										}
									}
								}
								JOINT Character1_LeftHandIndex1
								{
									OFFSET 8.043888 0.989311 2.480770
									CHANNELS 6 Xposition Yposition Zposition Xrotation Yrotation Zrotation
									JOINT Character1_LeftHandIndex2
									{
										OFFSET 2.427021 0.011856 0.268371
										CHANNELS 6 Xposition Yposition Zposition Xrotation Yrotation Zrotation
										JOINT Character1_LeftHandIndex3
										{
											OFFSET 1.609932 0.007866 0.037315
											CHANNELS 6 Xposition Yposition Zposition Xrotation Yrotation Zrotation
											JOINT Character1_LeftHandIndex4
											{
												OFFSET 2.130016 0.049431 0.114431
												CHANNELS 6 Xposition Yposition Zposition Xrotation Yrotation Zrotation
												End Site
												{
													OFFSET 2.119099 0.211617 -0.131005
												}
											}
										}
									}
								}
								JOINT Character1_LeftHandMiddle1
								{
									OFFSET 8.038177 1.007423 0.439338
									CHANNELS 6 Xposition Yposition Zposition Xrotation Yrotation Zrotation
									JOINT Character1_LeftHandMiddle2
									{
										OFFSET 2.527046 -0.234444 -0.080977
										CHANNELS 6 Xposition Yposition Zposition Xrotation Yrotation Zrotation
										JOINT Character1_LeftHandMiddle3
										{
											OFFSET 1.931313 -0.179352 -0.117768
											CHANNELS 6 Xposition Yposition Zposition Xrotation Yrotation Zrotation
											JOINT Character1_LeftHandMiddle4
											{
												OFFSET 2.196999 0.041229 -0.161456
												CHANNELS 6 Xposition Yposition Zposition Xrotation Yrotation Zrotation
												End Site
												{
													OFFSET 2.197571 -0.071640 -0.141814
												}
											}
										}
									}
								}
								JOINT Character1_LeftHandRing1
								{
									OFFSET 7.662090 0.616508 -1.366725
									CHANNELS 6 Xposition Yposition Zposition Xrotation Yrotation Zrotation
									JOINT Character1_LeftHandRing2
									{
										OFFSET 2.249855 -0.592636 -0.461933
										CHANNELS 6 Xposition Yposition Zposition Xrotation Yrotation Zrotation
										JOINT Character1_LeftHandRing3
										{
											OFFSET 1.521790 -0.400856 -0.248318
											CHANNELS 6 Xposition Yposition Zposition Xrotation Yrotation Zrotation
											JOINT Character1_LeftHandRing4
											{
												OFFSET 2.446365 -0.396080 -0.528466
												CHANNELS 6 Xposition Yposition Zposition Xrotation Yrotation Zrotation
												End Site
												{
													OFFSET 2.437840 -0.527443 -0.446790
												}
											}
										}
									}
								}
								JOINT Character1_LeftHandPinky1
								{
									OFFSET 6.585136 -0.139000 -2.766160
									CHANNELS 6 Xposition Yposition Zposition Xrotation Yrotation Zrotation
									JOINT Character1_LeftHandPinky2
									{
										OFFSET 1.631428 -0.600632 -0.502815
										CHANNELS 6 Xposition Yposition Zposition Xrotation Yrotation Zrotation
										JOINT Character1_LeftHandPinky3
										{
											OFFSET 1.227242 -0.468956 -0.457904
											CHANNELS 6 Xposition Yposition Zposition Xrotation Yrotation Zrotation
											JOINT Character1_LeftHandPinky4
											{
												OFFSET 1.696033 -0.584229 -0.687828
												CHANNELS 6 Xposition Yposition Zposition Xrotation Yrotation Zrotation
												End Site
												{
													OFFSET 1.705387 -0.567787 -0.678411
												}
											}
										}
									}
								}
							}
						}
					}
				}
				JOINT Character1_RightShoulder
				{
					OFFSET -4.211487 11.612236 -3.873799
					CHANNELS 6 Xposition Yposition Zposition Xrotation Yrotation Zrotation
					JOINT Character1_RightArm
					{
						OFFSET -5.543744 0.000023 -0.000004
						CHANNELS 6 Xposition Yposition Zposition Xrotation Yrotation Zrotation
						JOINT Character1_RightForeArm
						{
							OFFSET -23.377581 -0.123566 0.033386
							CHANNELS 6 Xposition Yposition Zposition Xrotation Yrotation Zrotation
							JOINT Character1_RightHand
							{
								OFFSET -16.247574 -0.118851 0.036247
								CHANNELS 6 Xposition Yposition Zposition Xrotation Yrotation Zrotation
								JOINT Character1_RightHandThumb1
								{
									OFFSET -2.510384 -0.904091 2.091566
									CHANNELS 6 Xposition Yposition Zposition Xrotation Yrotation Zrotation
									JOINT Character1_RightHandThumb2
									{
										OFFSET -2.579426 -1.121681 1.537416
										CHANNELS 6 Xposition Yposition Zposition Xrotation Yrotation Zrotation
										JOINT Character1_RightHandThumb3
										{
											OFFSET -1.429546 -0.616760 0.819528
											CHANNELS 6 Xposition Yposition Zposition Xrotation Yrotation Zrotation
											JOINT Character1_RightHandThumb4
											{
												OFFSET -2.167622 -0.774658 1.279505
												CHANNELS 6 Xposition Yposition Zposition Xrotation Yrotation Zrotation
												End Site
												{
													OFFSET -2.137974 -0.606712 1.413074
												}
											}
										}
									}
								}
								JOINT Character1_RightHandIndex1
								{
									OFFSET -8.043800 0.988876 2.481294
									CHANNELS 6 Xposition Yposition Zposition Xrotation Yrotation Zrotation
									JOINT Character1_RightHandIndex2
									{
										OFFSET -2.426987 0.011948 0.268470
										CHANNELS 6 Xposition Yposition Zposition Xrotation Yrotation Zrotation
										JOINT Character1_RightHandIndex3
										{
											OFFSET -1.609989 0.007927 0.037374
											CHANNELS 6 Xposition Yposition Zposition Xrotation Yrotation Zrotation
											JOINT Character1_RightHandIndex4
											{
												OFFSET -2.129982 0.049034 0.114512
												CHANNELS 6 Xposition Yposition Zposition Xrotation Yrotation Zrotation
												End Site
												{
													OFFSET -2.123772 0.204735 0.006035
												}
											}
										}
									}
								}
								JOINT Character1_RightHandMiddle1
								{
									OFFSET -8.038174 1.006859 0.439860
									CHANNELS 6 Xposition Yposition Zposition Xrotation Yrotation Zrotation
									JOINT Character1_RightHandMiddle2
									{
										OFFSET -2.526997 -0.234062 -0.080875
										CHANNELS 6 Xposition Yposition Zposition Xrotation Yrotation Zrotation
										JOINT Character1_RightHandMiddle3
										{
											OFFSET -1.931465 -0.179070 -0.117694
											CHANNELS 6 Xposition Yposition Zposition Xrotation Yrotation Zrotation
											JOINT Character1_RightHandMiddle4
											{
												OFFSET -2.196987 0.042816 -0.161370
												CHANNELS 6 Xposition Yposition Zposition Xrotation Yrotation Zrotation
												End Site
												{
													OFFSET -2.184029 -0.187660 -0.222307
												}
											}
										}
									}
								}
								JOINT Character1_RightHandRing1
								{
									OFFSET -7.662136 0.615837 -1.366219
									CHANNELS 6 Xposition Yposition Zposition Xrotation Yrotation Zrotation
									JOINT Character1_RightHandRing2
									{
										OFFSET -2.249901 -0.592049 -0.461829
										CHANNELS 6 Xposition Yposition Zposition Xrotation Yrotation Zrotation
										JOINT Character1_RightHandRing3
										{
											OFFSET -1.521889 -0.400475 -0.248259
											CHANNELS 6 Xposition Yposition Zposition Xrotation Yrotation Zrotation
											JOINT Character1_RightHandRing4
											{
												OFFSET -2.446423 -0.395401 -0.528361
												CHANNELS 6 Xposition Yposition Zposition Xrotation Yrotation Zrotation
												End Site
												{
													OFFSET -2.430859 -0.503899 -0.507441
												}
											}
										}
									}
								}
								JOINT Character1_RightHandPinky1
								{
									OFFSET -6.585262 -0.139153 -2.765680
									CHANNELS 6 Xposition Yposition Zposition Xrotation Yrotation Zrotation
									JOINT Character1_RightHandPinky2
									{
										OFFSET -1.631413 -0.601036 -0.502742
										CHANNELS 6 Xposition Yposition Zposition Xrotation Yrotation Zrotation
										JOINT Character1_RightHandPinky3
										{
											OFFSET -1.227207 -0.469040 -0.457860
											CHANNELS 6 Xposition Yposition Zposition Xrotation Yrotation Zrotation
											JOINT Character1_RightHandPinky4
											{
												OFFSET -1.696110 -0.584045 -0.687750
												CHANNELS 6 Xposition Yposition Zposition Xrotation Yrotation Zrotation
												End Site
												{
													OFFSET -1.689350 -0.584435 -0.703875
												}
											}
										}
									}
								}
							}
						}
					}
				}
				JOINT Character1_Neck
				{
					OFFSET -0.000001 15.167763 -4.080687
					CHANNELS 6 Xposition Yposition Zposition Xrotation Yrotation Zrotation
					JOINT Character1_Head
					{
						OFFSET -0.000001 7.825302 -0.202157
						CHANNELS 6 Xposition Yposition Zposition Xrotation Yrotation Zrotation
						End Site
						{
							OFFSET -0.242856 15.320236 -2.107584
						}
					}
				}
				JOINT J_R_Mune_00
				{
					OFFSET -2.925001 2.684891 0.061887
					CHANNELS 6 Xposition Yposition Zposition Xrotation Yrotation Zrotation
					JOINT J_R_Mune_01
					{
						OFFSET -7.794388 2.801010 16.635391
						CHANNELS 6 Xposition Yposition Zposition Xrotation Yrotation Zrotation
						JOINT J_R_Mune_02
						{
							OFFSET 6.838630 -2.377007 -14.605499
							CHANNELS 6 Xposition Yposition Zposition Xrotation Yrotation Zrotation
							End Site
							{
								OFFSET -14.795670 -0.834061 -6.791919
							}
						}
					}
				}
				JOINT J_L_Mune_00
				{
					OFFSET 2.925019 2.684776 0.061883
					CHANNELS 6 Xposition Yposition Zposition Xrotation Yrotation Zrotation
					JOINT J_L_Mune_01
					{
						OFFSET 7.794374 2.801254 16.635433
						CHANNELS 6 Xposition Yposition Zposition Xrotation Yrotation Zrotation
						JOINT J_L_Mune_02
						{
							OFFSET -6.838619 -2.376648 -14.605538
							CHANNELS 3 Xrotation Yrotation Zrotation
							End Site
							{
								OFFSET 14.795649 -0.834076 -6.791907
							}
						}
					}
				}
			}
		}
	}
}
MOTION
Frames: 3
Frame Time: 0.033333
3.204575 84.264252 -4.914440 -0.269402 -44.878943 -356.656387 7.276833 -6.057797 0.207887 -49.900344 -15.436788 -13.093228 -1.823141 -35.110462 -1.568860 78.214402 4.914323 0.175470 -1.031195 -37.817070 -1.726821 -3.205777 0.283765 -2.785451 0.202457 -5.287533 8.122427 0.000103 0.000158 -0.013435 -7.276831 -6.057767 0.207880 -21.541812 -26.160080 -14.602127 1.823195 -35.109619 -1.587616 34.774276 0.954992 2.573899 1.031267 -37.817825 -1.710085 -17.064707 -0.186562 -1.449865 -0.202449 -5.287760 8.122277 0.000120 -0.000289 -0.222309 -0.000001 2.271349 0.818150 0.183255 -5.638972 -3.962714 -0.000001 9.085939 0.955446 1.486060 -6.676237 -1.395369 -0.000002 8.765560 -0.142869 8.588729 -5.410708 -0.040429 4.211488 11.612241 -3.873800 0.000002 -0.000351 -2.457626 5.543700 0.000036 -0.000010 -0.984688 -15.722592 -41.947784 23.377396 -0.123485 0.033367 174.573993 -145.048575 182.785821 16.247705 -0.118847 0.035830 0.181604 -4.989672 25.973662 2.510393 -0.904043 2.091609 -2.573576 -1.715638 7.431994 2.570465 -1.130470 1.584522 4.641486 14.920191 2.293055 1.420843 -0.605853 0.842591 5.373803 23.291374 2.709187 2.153471 -0.757823 1.312959 -0.000524 0.001115 -0.006103 8.043893 0.989305 2.480768 3.066790 13.710502 1.532318 2.427029 0.011866 0.268372 0.423136 -0.045364 -18.415633 1.609953 0.007857 0.037316 1.369520 0.271909 -24.433142 2.130017 0.049422 0.114427 -0.003294 -0.004266 -0.000971 8.038170 1.007434 0.439338 -0.329559 1.965198 -5.254540 2.527052 -0.234441 -0.080975 -1.320289 0.340379 -23.304920 1.931307 -0.179346 -0.117769 -2.194784 0.974499 -33.186175 2.197001 0.041227 -0.161457 -0.003324 -0.003912 0.001109 7.662089 0.616510 -1.366725 -11.465062 -5.992399 -0.178464 2.249857 -0.592631 -0.461922 -0.738254 1.112364 -28.734066 1.521797 -0.400862 -0.248313 -6.831707 4.426281 -25.212453 2.446376 -0.396084 -0.528471 -0.003446 -0.001570 0.001069 6.585136 -0.138991 -2.766159 -6.188442 -18.307953 5.996383 1.631427 -0.600628 -0.502823 -3.494285 1.741885 -11.170071 1.227245 -0.468964 -0.457905 -10.862805 8.682832 -35.889359 1.696023 -0.584249 -0.687839 -0.000679 -0.000156 -0.000235 -4.211486 11.612230 -3.873800 0.000076 0.000206 -0.000110 -5.543736 0.000007 -0.000003 6.457245 -0.190505 59.331422 -23.377584 -0.123552 0.033387 -41.781722 18.916315 8.725107 -16.247570 -0.118855 0.036250 18.225970 -4.117860 -17.515856 -2.510394 -0.904111 2.091560 -7.055212 -0.039741 -13.731514 -2.579425 -1.121668 1.537417 6.117539 -19.520650 -2.673295 -1.429548 -0.616759 0.819535 7.327081 -30.564482 -3.014722 -2.167629 -0.774653 1.279517 0.009520 0.003382 -0.006116 -8.043810 0.988880 2.481294 2.009329 -9.925670 11.498842 -2.426995 0.011950 0.268468 0.066086 -0.001140 28.214243 -1.609982 0.007924 0.037376 0.000542 -0.000384 5.297897 -2.129967 0.049036 0.114509 -0.000883 -0.008602 0.004640 -8.038185 1.006863 0.439860 1.626715 0.054668 4.583852 -2.526996 -0.234067 -0.080876 -1.121472 -0.261977 37.373661 -1.931459 -0.179077 -0.117691 -1.771133 -1.184283 47.582137 -2.196993 0.042809 -0.161369 -0.000952 -0.002878 -0.003799 -7.662136 0.615833 -1.366222 -0.911497 14.831298 6.673820 -2.249897 -0.592042 -0.461831 -0.411877 -0.168800 26.030114 -1.521881 -0.400478 -0.248251 -4.276578 -1.878022 44.396947 -2.446418 -0.395392 -0.528366 0.004760 0.000968 0.007350 -6.585267 -0.139150 -2.765689 -20.673267 14.544954 1.425737 -1.631418 -0.601036 -0.502748 -4.388011 -2.335551 14.215168 -1.227188 -0.469052 -0.457853 -10.411524 -11.507666 39.807200 -1.696106 -0.584051 -0.687753 0.004284 0.003813 -0.005208 -0.000000 15.167754 -4.080686 -4.484380 28.538626 1.722294 -0.000001 7.825302 -0.202158 2.970204 24.602567 -3.813375 -2.925002 2.684891 0.061885 0.000001 -0.000002 0.000001 -7.794388 2.801003 16.635386 -0.000000 -0.000002 0.000001 6.838631 -2.377022 -14.605497 -0.000001 0.000000 -0.000000 2.925020 2.684784 0.061881 0.000003 0.000004 -0.000000 7.794373 2.801239 16.635429 0.000000 -0.000000 0.000000 0.000001 0.000000 0.000001 
3.619092 84.453178 -4.914903 0.178736 -41.338627 -356.833152 7.276832 -6.057803 0.207882 -46.537706 -14.534320 -10.726354 -1.823138 -35.110451 -1.568843 74.249614 7.592782 -0.325268 -1.031195 -37.817074 -1.726820 -7.574421 0.634579 -3.845300 0.202457 -5.287531 8.122427 -0.000001 0.000112 -0.013413 -7.276832 -6.057774 0.207878 -21.259389 -27.553087 -14.907125 1.823195 -35.109615 -1.587617 33.556381 1.441742 2.691087 1.031267 -37.817833 -1.710086 -16.463838 -0.247145 -1.087267 -0.202449 -5.287759 8.122277 0.000177 -0.000304 -0.222304 -0.000001 2.271333 0.818149 -0.091603 -5.757012 -3.616291 -0.000001 9.085925 0.955443 1.142132 -5.906123 -1.324258 -0.000001 8.765557 -0.142868 8.232697 -4.628835 0.001200 4.211488 11.612227 -3.873795 0.000103 -0.000359 -2.457629 5.543692 0.000031 -0.000006 0.501382 -14.904301 -43.758406 23.377403 -0.123475 0.033370 174.086072 -149.042077 183.112126 16.247707 -0.118858 0.035827 -0.324141 -5.005751 26.688075 2.510399 -0.904069 2.091599 -2.573660 -1.715606 7.431975 2.570467 -1.130487 1.584520 4.641538 14.920096 2.293062 1.420838 -0.605841 0.842597 5.373811 23.291319 2.709183 2.153467 -0.757809 1.312958 -0.000517 0.001077 -0.006148 8.043887 0.989298 2.480763 3.066738 13.710373 1.532358 2.427019 0.011849 0.268371 0.423153 -0.045320 -18.415624 1.609942 0.007870 0.037317 1.369546 0.271807 -24.433234 2.130028 0.049424 0.114429 -0.003268 -0.004208 -0.000948 8.038171 1.007416 0.439328 -0.329569 1.965027 -5.254574 2.527044 -0.234464 -0.080976 -1.320281 0.340385 -23.304867 1.931313 -0.179343 -0.117774 -2.194859 0.974625 -33.186212 2.197008 0.041220 -0.161454 -0.003340 -0.003824 0.001090 7.662087 0.616487 -1.366735 -11.465125 -5.992484 -0.178517 2.249877 -0.592639 -0.461934 -0.738302 1.112437 -28.734059 1.521776 -0.400854 -0.248317 -6.831699 4.426310 -25.212479 2.446366 -0.396085 -0.528467 -0.003439 -0.001496 0.001111 6.585131 -0.138996 -2.766166 -6.188489 -18.308049 5.996352 1.631431 -0.600635 -0.502819 -3.494271 1.741815 -11.170085 1.227251 -0.468947 -0.457907 -10.862844 8.683078 -35.889338 1.696017 -0.584233 -0.687829 -0.000593 -0.000184 -0.000208 -4.211486 11.612232 -3.873797 0.000152 0.000280 -0.000122 -5.543740 0.000025 -0.000005 5.828999 0.392239 59.176424 -23.377598 -0.123569 0.033385 -41.233606 17.352331 8.656273 -16.247570 -0.118855 0.036249 17.919268 -4.099505 -18.551690 -2.510377 -0.904087 2.091563 -7.055198 -0.039764 -13.731516 -2.579426 -1.121674 1.537416 6.117510 -19.520556 -2.673277 -1.429545 -0.616750 0.819537 7.327032 -30.564642 -3.014708 -2.167622 -0.774642 1.279523 0.009472 0.003310 -0.006101 -8.043801 0.988878 2.481299 2.009338 -9.925578 11.498833 -2.426994 0.011931 0.268469 0.066099 -0.001093 28.214234 -1.609978 0.007922 0.037376 0.000549 -0.000447 5.297925 -2.129975 0.049031 0.114513 -0.000812 -0.008574 0.004642 -8.038171 1.006853 0.439862 1.626734 0.054682 4.583827 -2.526996 -0.234064 -0.080875 -1.121477 -0.261936 37.373689 -1.931445 -0.179062 -0.117692 -1.771160 -1.184226 47.582110 -2.196984 0.042825 -0.161370 -0.001037 -0.002947 -0.003803 -7.662134 0.615838 -1.366218 -0.911484 14.831300 6.673823 -2.249898 -0.592043 -0.461827 -0.411889 -0.168790 26.030114 -1.521875 -0.400472 -0.248252 -4.276613 -1.878003 44.396889 -2.446420 -0.395396 -0.528364 0.004770 0.000917 0.007326 -6.585257 -0.139160 -2.765682 -20.673256 14.544995 1.425731 -1.631409 -0.601021 -0.502732 -4.388048 -2.335519 14.215205 -1.227201 -0.469041 -0.457846 -10.411626 -11.507738 39.807172 -1.696100 -0.584049 -0.687742 0.004309 0.003731 -0.005241 0.000000 15.167762 -4.080684 -5.012781 27.076454 1.854459 -0.000001 7.825295 -0.202160 2.863448 23.054706 -3.718176 -2.925001 2.684883 0.061889 0.000000 -0.000005 0.000001 -7.794385 2.801003 16.635387 -0.000000 -0.000002 0.000001 6.838627 -2.377022 -14.605494 -0.000002 0.000002 -0.000000 2.925019 2.684784 0.061882 0.000001 0.000000 0.000000 7.794375 2.801247 16.635429 -0.000000 -0.000000 -0.000000 0.000000 0.000004 -0.000001 
4.026434 84.637909 -4.921557 0.554109 -37.835751 -357.021911 7.276833 -6.057815 0.207879 -42.600798 -13.187621 -8.262774 -1.823140 -35.110462 -1.568851 69.441352 10.845271 -0.794577 -1.031194 -37.817070 -1.726821 -10.862196 1.040478 -5.286143 0.202456 -5.287534 8.122427 0.000148 0.000173 -0.013440 -7.276832 -6.057783 0.207881 -20.908882 -28.966057 -15.280274 1.823196 -35.109631 -1.587617 32.314267 2.064350 2.744757 1.031267 -37.817829 -1.710087 -15.909963 -0.318479 -0.649320 -0.202449 -5.287758 8.122277 0.000124 -0.000284 -0.222295 -0.000002 2.271336 0.818148 -0.339220 -5.867116 -3.243243 -0.000001 9.085947 0.955444 0.796957 -5.150517 -1.254750 -0.000002 8.765567 -0.142869 7.876513 -3.861835 0.042127 4.211489 11.612241 -3.873802 0.000002 -0.000394 -2.457631 5.543706 0.000042 -0.000004 1.951375 -14.225822 -45.468542 23.377413 -0.123496 0.033365 173.515369 -152.776114 183.409704 16.247704 -0.118867 0.035833 -0.829618 -5.030478 27.402251 2.510397 -0.904038 2.091599 -2.573810 -1.715399 7.432118 2.570465 -1.130456 1.584519 4.641498 14.920004 2.293056 1.420840 -0.605862 0.842598 5.373791 23.291444 2.709091 2.153470 -0.757809 1.312964 -0.000498 0.001095 -0.006122 8.043886 0.989322 2.480762 3.066632 13.710614 1.532462 2.427023 0.011860 0.268371 0.422906 -0.045556 -18.415604 1.609939 0.007863 0.037316 1.369523 0.271970 -24.433093 2.130017 0.049462 0.114430 -0.003287 -0.004046 -0.001094 8.038176 1.007433 0.439331 -0.329619 1.965041 -5.254544 2.527050 -0.234456 -0.080975 -1.320431 0.340534 -23.304732 1.931326 -0.179346 -0.117778 -2.194810 0.974487 -33.186284 2.196985 0.041230 -0.161453 -0.003308 -0.003835 0.001090 7.662097 0.616519 -1.366728 -11.465253 -5.992384 -0.178385 2.249859 -0.592644 -0.461937 -0.738298 1.112403 -28.734104 1.521799 -0.400851 -0.248318 -6.831635 4.426381 -25.212352 2.446343 -0.396077 -0.528463 -0.003459 -0.001583 0.001068 6.585134 -0.138983 -2.766172 -6.188659 -18.307916 5.996545 1.631424 -0.600628 -0.502815 -3.494238 1.741907 -11.170145 1.227239 -0.468956 -0.457902 -10.862847 8.682907 -35.889396 1.696038 -0.584240 -0.687834 -0.000651 -0.000165 -0.000186 -4.211487 11.612232 -3.873803 0.000002 0.000263 -0.000147 -5.543738 0.000037 -0.000002 5.245829 0.939327 59.040094 -23.377567 -0.123575 0.033384 -40.725836 15.892867 8.598391 -16.247589 -0.118861 0.036248 17.613062 -4.075798 -19.586978 -2.510395 -0.904107 2.091566 -7.055220 -0.039692 -13.731530 -2.579433 -1.121679 1.537410 6.117499 -19.520734 -2.673280 -1.429542 -0.616758 0.819541 7.326636 -30.564943 -3.014723 -2.167627 -0.774657 1.279510 0.009850 0.003685 -0.006277 -8.043808 0.988872 2.481295 2.009301 -9.925524 11.498807 -2.426996 0.011930 0.268470 0.066121 -0.001174 28.214210 -1.609999 0.007925 0.037373 0.000600 -0.000455 5.297963 -2.129980 0.049048 0.114510 -0.000897 -0.008532 0.004610 -8.038183 1.006849 0.439864 1.626778 0.054673 4.583855 -2.527004 -0.234072 -0.080874 -1.121561 -0.261948 37.373620 -1.931468 -0.179055 -0.117689 -1.771186 -1.184218 47.582130 -2.196995 0.042818 -0.161373 -0.000982 -0.002902 -0.003817 -7.662143 0.615846 -1.366220 -0.911507 14.831298 6.673832 -2.249893 -0.592039 -0.461827 -0.411840 -0.168808 26.030093 -1.521874 -0.400477 -0.248248 -4.276714 -1.877947 44.396957 -2.446418 -0.395397 -0.528369 0.004765 0.000916 0.007333 -6.585268 -0.139156 -2.765680 -20.673231 14.545053 1.425760 -1.631423 -0.601028 -0.502742 -4.388063 -2.335512 14.215205 -1.227183 -0.469035 -0.457854 -10.411506 -11.507770 39.807162 -1.696112 -0.584054 -0.687746 0.004281 0.003821 -0.005222 -0.000000 15.167769 -4.080691 -5.527049 25.356164 1.930344 -0.000000 7.825318 -0.202155 2.760502 21.506825 -3.627211 -2.925002 2.684891 0.061883 0.000000 -0.000002 0.000000 -7.794386 2.801002 16.635389 0.000001 0.000001 -0.000000 6.838629 -2.377022 -14.605499 -0.000001 0.000000 -0.000000 2.925019 2.684792 0.061877 0.000001 0.000000 -0.000000 7.794372 2.801255 16.635429 -0.000001 0.000003 -0.000000 0.000001 0.000006 -0.000000 
